<svg width="1280" height="360" viewBox="0 0 1280 360" fill="none" xmlns="http://www.w3.org/2000/svg">
  <rect width="1280" height="360" rx="24" fill="#050816"/>
  <rect width="1280" height="360" rx="24" fill="url(#bgGlow)"/>

  <g opacity="0.22">
    <path d="M0 58H1280" stroke="#1E293B"/>
    <path d="M0 118H1280" stroke="#1E293B"/>
    <path d="M0 178H1280" stroke="#1E293B"/>
    <path d="M0 238H1280" stroke="#1E293B"/>
    <path d="M0 298H1280" stroke="#1E293B"/>
    <path d="M90 0V360" stroke="#1E293B"/>
    <path d="M250 0V360" stroke="#1E293B"/>
    <path d="M410 0V360" stroke="#1E293B"/>
    <path d="M570 0V360" stroke="#1E293B"/>
    <path d="M730 0V360" stroke="#1E293B"/>
    <path d="M890 0V360" stroke="#1E293B"/>
    <path d="M1050 0V360" stroke="#1E293B"/>
    <path d="M1210 0V360" stroke="#1E293B"/>
  </g>

  <circle cx="1080" cy="68" r="220" fill="url(#awsGlow)" fill-opacity="0.55"/>
  <circle cx="930" cy="318" r="180" fill="url(#blueGlow)" fill-opacity="0.45"/>
  <circle cx="182" cy="68" r="150" fill="url(#cyanGlow)" fill-opacity="0.18"/>

  <path d="M0 290C120 272 190 215 295 215C400 215 455 275 555 275C665 275 740 196 850 196C960 196 1040 254 1130 254C1194 254 1242 233 1280 210" stroke="#38BDF8" stroke-opacity="0.38" stroke-width="2"/>
  <path d="M0 315C120 315 165 262 284 262C386 262 430 315 531 315C655 315 724 226 861 226C977 226 1074 295 1168 295C1215 295 1255 285 1280 278" stroke="#F59E0B" stroke-opacity="0.40" stroke-width="2"/>
  <path d="M0 155C102 140 172 90 282 90C389 90 438 137 539 137C637 137 704 84 802 84C936 84 1024 164 1139 164C1193 164 1241 150 1280 126" stroke="#22D3EE" stroke-opacity="0.18" stroke-width="2"/>

  <g filter="url(#softShadow)">
    <rect x="58" y="54" width="650" height="252" rx="20" fill="#081121" fill-opacity="0.82" stroke="#0EA5E9" stroke-opacity="0.20"/>
    <rect x="748" y="54" width="474" height="252" rx="20" fill="#0B1220" fill-opacity="0.76" stroke="#F59E0B" stroke-opacity="0.24"/>
  </g>

  <text x="88" y="108" fill="#94A3B8" font-family="Arial, Helvetica, sans-serif" font-size="14" font-weight="700" letter-spacing="3">AWS / SECURITY / INFRASTRUCTURE</text>
  <text x="88" y="158" fill="#F8FAFC" font-family="Arial, Helvetica, sans-serif" font-size="42" font-weight="700">Rafael Garcez</text>
  <text x="88" y="198" fill="#38BDF8" font-family="Arial, Helvetica, sans-serif" font-size="23" font-weight="700">Cloud Security  |  Blue Team  |  SOC  |  Infraestrutura Segura</text>
  <text x="88" y="242" fill="#CBD5E1" font-family="Arial, Helvetica, sans-serif" font-size="18">15+ anos em infraestrutura, Linux e operações de rede.</text>
  <text x="88" y="270" fill="#CBD5E1" font-family="Arial, Helvetica, sans-serif" font-size="18">Transição estratégica para cibersegurança e cloud com base prática.</text>

  <rect x="88" y="286" width="110" height="30" rx="15" fill="#F59E0B"/>
  <rect x="210" y="286" width="120" height="30" rx="15" fill="#0EA5E9"/>
  <rect x="342" y="286" width="92" height="30" rx="15" fill="#111827" stroke="#22D3EE" stroke-opacity="0.45"/>
  <text x="118" y="306" fill="#0F172A" font-family="Arial, Helvetica, sans-serif" font-size="13" font-weight="700">AWS</text>
  <text x="238" y="306" fill="#F8FAFC" font-family="Arial, Helvetica, sans-serif" font-size="13" font-weight="700">SECURITY</text>
  <text x="366" y="306" fill="#F8FAFC" font-family="Arial, Helvetica, sans-serif" font-size="13" font-weight="700">SOC</text>

  <text x="780" y="102" fill="#F59E0B" font-family="Arial, Helvetica, sans-serif" font-size="16" font-weight="700" letter-spacing="2">CORE DOMAINS</text>
  <text x="780" y="144" fill="#F8FAFC" font-family="Arial, Helvetica, sans-serif" font-size="22" font-weight="700">Cloud Security</text>
  <text x="780" y="176" fill="#7DD3FC" font-family="Arial, Helvetica, sans-serif" font-size="18">Blue Team, SOC, SIEM e EDR</text>
  <text x="780" y="208" fill="#E2E8F0" font-family="Arial, Helvetica, sans-serif" font-size="18">Linux, Windows Server, AD, VPN, pfSense</text>
  <text x="780" y="240" fill="#E2E8F0" font-family="Arial, Helvetica, sans-serif" font-size="18">Monitoramento, backup, automação e hardening</text>
  <text x="780" y="286" fill="#94A3B8" font-family="Arial, Helvetica, sans-serif" font-size="15">Minimalismo técnico com atmosfera cyberpunk.</text>

  <defs>
    <linearGradient id="bgGlow" x1="74" y1="24" x2="1229" y2="357" gradientUnits="userSpaceOnUse">
      <stop stop-color="#07101F"/>
      <stop offset="0.5" stop-color="#0A1226"/>
      <stop offset="1" stop-color="#090B17"/>
    </linearGradient>
    <radialGradient id="awsGlow" cx="0" cy="0" r="1" gradientUnits="userSpaceOnUse" gradientTransform="translate(1080 68) rotate(90) scale(220)">
      <stop stop-color="#F59E0B"/>
      <stop offset="1" stop-color="#F59E0B" stop-opacity="0"/>
    </radialGradient>
    <radialGradient id="blueGlow" cx="0" cy="0" r="1" gradientUnits="userSpaceOnUse" gradientTransform="translate(930 318) rotate(90) scale(180)">
      <stop stop-color="#0EA5E9"/>
      <stop offset="1" stop-color="#0EA5E9" stop-opacity="0"/>
    </radialGradient>
    <radialGradient id="cyanGlow" cx="0" cy="0" r="1" gradientUnits="userSpaceOnUse" gradientTransform="translate(182 68) rotate(90) scale(150)">
      <stop stop-color="#22D3EE"/>
      <stop offset="1" stop-color="#22D3EE" stop-opacity="0"/>
    </radialGradient>
    <filter id="softShadow" x="42" y="42" width="1196" height="280" filterUnits="userSpaceOnUse" color-interpolation-filters="sRGB">
      <feFlood flood-opacity="0" result="BackgroundImageFix"/>
      <feColorMatrix in="SourceAlpha" type="matrix" values="0 0 0 0 0 0 0 0 0 0 0 0 0 0 0 0 0 0 127 0" result="hardAlpha"/>
      <feOffset dy="6"/>
      <feGaussianBlur stdDeviation="8"/>
      <feComposite in2="hardAlpha" operator="out"/>
      <feColorMatrix type="matrix" values="0 0 0 0 0.00784314 0 0 0 0 0.0470588 0 0 0 0 0.113725 0 0 0 0.45 0"/>
      <feBlend mode="normal" in2="BackgroundImageFix" result="effect1_dropShadow"/>
      <feBlend mode="normal" in="SourceGraphic" in2="effect1_dropShadow" result="shape"/>
    </filter>
  </defs>
</svg>
